<?xml version="1.0" encoding="UTF-8"?>
<svg id="Layer_1" data-name="Layer 1" xmlns="http://www.w3.org/2000/svg" viewBox="0 0 664.1 210.51">
  <polygon points="185.37 172.35 67.31 183.87 63.9 148.91 63.84 148.27 62.42 133.72 89.15 131.12 131.04 127.03 125.9 74.29 124.41 59.11 144.59 57.14 151.15 56.5 173.86 54.28 185.37 172.35" style="fill: #fd0078;"/>
  <polygon points="84.43 58.99 48.97 62.45 51.81 91.58 54.94 123.67 34.48 125.66 28.56 126.24 10.38 128.01 0 21.61 106.4 11.23 107.68 24.33 107.74 24.91 110.81 56.42 84.43 58.99" style="fill: #fd0078;"/>
  <polygon points="123.9 121.98 86.15 125.66 62.05 128.01 58.92 95.93 83.02 93.57 94.39 92.47 92.88 77.02 91.54 63.33 117.92 60.76 119.26 74.44 123.9 121.98" style="fill: #fd0078;"/>
  <text transform="translate(200.38 159.86)" style="fill: #fd0078; font-family: Roboto-CondensedBlackItalic, Roboto; font-size: 186.87px; font-style: italic; font-variation-settings: &apos;wght&apos; 900, &apos;wdth&apos; 75; font-weight: 800;"><tspan x="0" y="0">Kai</tspan><tspan x="232.95" y="0" style="letter-spacing: -.02em;">r</tspan><tspan x="292.17" y="0" style="letter-spacing: 0em;">ós</tspan></text>
</svg>